<svg width="50" height="40" viewBox="0 0 50 40" fill="none" xmlns="http://www.w3.org/2000/svg">
<g id="mastercard_logo">
<path id="Vector" d="M18.4149 4.13556H31.6852V27.9362H18.4149V4.13556Z" fill="#FF5F00"/>
<g id="Group">
<path id="Vector_2" d="M9.44185 39.9159V37.393C9.44185 36.4256 8.85193 35.795 7.84078 35.795C7.3353 35.795 6.78759 35.9632 6.40839 36.5099C6.11362 36.0473 5.69238 35.795 5.06043 35.795C4.63901 35.795 4.21796 35.9211 3.88078 36.3837V35.8791H2.99609V39.9159H3.88078V37.6872C3.88078 36.9725 4.25999 36.636 4.84991 36.636C5.43945 36.636 5.7346 37.0145 5.7346 37.6872V39.9159H6.61929V37.6872C6.61929 36.9725 7.04034 36.636 7.58804 36.636C8.17796 36.636 8.47273 37.0145 8.47273 37.6872V39.9159H9.44185ZM22.5435 35.8791H21.1113V34.6597H20.2266V35.8791H19.4262V36.6779H20.2264V38.5283C20.2264 39.4535 20.6056 40 21.6168 40C21.996 40 22.417 39.874 22.7122 39.7058L22.4593 38.9488C22.2065 39.1169 21.9118 39.1591 21.701 39.1591C21.2798 39.1591 21.1113 38.9068 21.1113 38.4862V36.6779H22.5435V35.8791ZM30.0425 35.7948C29.537 35.7948 29.2 36.0473 28.9893 36.3837V35.8791H28.1046V39.9159H28.9893V37.6452C28.9893 36.9725 29.284 36.594 29.8317 36.594C30.0002 36.594 30.211 36.6361 30.3794 36.6781L30.6322 35.8372C30.4637 35.795 30.211 35.795 30.0425 35.795V35.7948ZM18.71 36.2155C18.2886 35.9211 17.6988 35.795 17.0669 35.795C16.0559 35.795 15.3819 36.2996 15.3819 37.0986C15.3819 37.7715 15.8874 38.1498 16.7721 38.276L17.1933 38.3182C17.6568 38.4021 17.9095 38.5283 17.9095 38.7386C17.9095 39.0329 17.5726 39.2432 16.9826 39.2432C16.3929 39.2432 15.9295 39.0329 15.6345 38.8227L15.2133 39.4955C15.6767 39.8318 16.3087 40 16.9404 40C18.1201 40 18.7942 39.4535 18.7942 38.6965C18.7942 37.9816 18.2465 37.6031 17.4039 37.4771L16.9826 37.4349C16.6034 37.3928 16.3087 37.3089 16.3087 37.0566C16.3087 36.7622 16.6034 36.594 17.0669 36.594C17.5726 36.594 18.078 36.8041 18.3308 36.9304L18.71 36.2155ZM42.2176 35.795C41.7119 35.795 41.3749 36.0473 41.1642 36.3837V35.8791H40.2795V39.9159H41.1642V37.6452C41.1642 36.9725 41.4592 36.594 42.0067 36.594C42.1754 36.594 42.3861 36.6361 42.5546 36.6781L42.8073 35.8372C42.6388 35.795 42.3861 35.795 42.2176 35.795ZM30.9271 37.8975C30.9271 39.1169 31.7696 40 33.0757 40C33.6655 40 34.0867 39.874 34.5079 39.5376L34.0867 38.8227C33.7497 39.075 33.4127 39.201 33.0335 39.201C32.3173 39.201 31.8118 38.6965 31.8118 37.8975C31.8118 37.1407 32.3173 36.636 33.0335 36.594C33.4127 36.594 33.7497 36.72 34.0867 36.9725L34.5079 36.2576C34.0867 35.9211 33.6655 35.795 33.0757 35.795C31.7696 35.795 30.9271 36.6781 30.9271 37.8975ZM39.1001 37.8975V35.8791H38.2154V36.3837C37.9204 36.0054 37.4992 35.795 36.9515 35.795C35.8141 35.795 34.9294 36.6781 34.9294 37.8975C34.9294 39.1169 35.8141 40 36.9515 40C37.5412 40 37.9626 39.7899 38.2154 39.4114V39.9159H39.1001V37.8975ZM35.8561 37.8975C35.8561 37.1826 36.3195 36.594 37.0778 36.594C37.794 36.594 38.2996 37.1407 38.2996 37.8975C38.2996 38.6124 37.794 39.201 37.0778 39.201C36.3195 39.1589 35.8561 38.6124 35.8561 37.8975ZM25.282 35.795C24.1024 35.795 23.2597 36.636 23.2597 37.8975C23.2597 39.1591 24.1022 40 25.3241 40C25.9138 40 26.5037 39.8318 26.9672 39.4535L26.5457 38.8227C26.2087 39.075 25.7875 39.2432 25.3663 39.2432C24.8186 39.2432 24.2709 38.9909 24.1444 38.2758H27.1357V37.9397C27.1779 36.636 26.4195 35.795 25.2818 35.795H25.282ZM25.282 36.5519C25.8295 36.5519 26.2089 36.8884 26.293 37.5192H24.1866C24.2709 36.9725 24.6501 36.5519 25.282 36.5519ZM47.2308 37.8975V34.2812H46.3461V36.3837C46.0511 36.0054 45.6299 35.795 45.0822 35.795C43.9448 35.795 43.0601 36.6781 43.0601 37.8975C43.0601 39.1169 43.9448 40 45.0822 40C45.6721 40 46.0933 39.7899 46.3461 39.4114V39.9159H47.2308V37.8975ZM43.987 37.8975C43.987 37.1826 44.4502 36.594 45.2087 36.594C45.9248 36.594 46.4303 37.1407 46.4303 37.8975C46.4303 38.6124 45.9248 39.201 45.2087 39.201C44.4502 39.1589 43.987 38.6124 43.987 37.8975ZM14.4128 37.8975V35.8791H13.5281V36.3837C13.2332 36.0054 12.8119 35.795 12.2642 35.795C11.1268 35.795 10.2421 36.6781 10.2421 37.8975C10.2421 39.1169 11.1268 40 12.2642 40C12.8541 40 13.2754 39.7899 13.5281 39.4114V39.9159H14.4128V37.8975ZM11.1268 37.8975C11.1268 37.1826 11.5903 36.594 12.3485 36.594C13.0647 36.594 13.5703 37.1407 13.5703 37.8975C13.5703 38.6124 13.0647 39.201 12.3485 39.201C11.5903 39.1589 11.1268 38.6124 11.1268 37.8975Z" fill="white"/>
<path id="Vector_3" d="M19.2573 16.0359C19.2573 11.2002 21.5322 6.91093 25.0287 4.13552C22.4591 2.11713 19.2153 0.897705 15.6765 0.897705C7.29269 0.897705 0.510132 7.66776 0.510132 16.0359C0.510132 24.4039 7.29269 31.1742 15.6763 31.1742C19.2151 31.1742 22.4589 29.9547 25.0287 27.9362C21.5322 25.2029 19.2573 20.8717 19.2573 16.0359Z" fill="#EB001B"/>
<path id="Vector_4" d="M49.5893 16.0359C49.5893 24.4039 42.8068 31.1742 34.4232 31.1742C30.8844 31.1742 27.6406 29.9547 25.0708 27.9362C28.6095 25.1609 30.8424 20.8717 30.8424 16.0359C30.8424 11.2002 28.5673 6.91093 25.0708 4.13552C27.6404 2.11713 30.8844 0.897705 34.4232 0.897705C42.8068 0.897705 49.5895 7.7099 49.5895 16.0359H49.5893Z" fill="#F79E1B"/>
</g>
</g>
</svg>
